<svg width="330" height="55" xmlns="http://www.w3.org/2000/svg">
 <g>
  <title>background</title>
  <rect x="-1" y="-1" width="111.999413" height="20.333236" id="canvas_background" fill="none"/>
 </g>

 <g>
  <title>Layer 1</title>
  <g id="svg_1">
   <g id="svg_2">
    <g id="svg_3">
     <g id="svg_4">
      <path fill="#6DBA50" d="m120.800003,4c-6.800003,2.2 -13.900002,8.4 -13,15.4c0,8 8,14.199999 15.899986,16.800001c-6.199997,-7.1 -10.599998,-15.900002 -6.699997,-25.6c1.799995,-4.1 3.799995,-6.6 3.799995,-6.6l0.000023,0l-0.000008,0z" id="svg_5"/>
     </g>
     <g id="svg_6">
      <path fill="#148E9D" d="m106.099998,21.299999c-2.699997,7 -0.099998,15.799999 5.200005,19.400002c7.099998,5.299999 16.800003,2.700001 23.899994,-3.5c-9.700005,1.799999 -20.300034,0 -25.700005,-8.700001c-2.400002,-4.1 -3.400002,-7.200001 -3.400002,-7.200001l0.000008,0z" id="svg_7"/>
     </g>
     <g id="svg_8">
      <path fill="#2FB7E9" d="m112.5,43.400002c4.900002,6 13.800003,8.5 20.899994,5.799999c4.800003,-1.900002 8.400009,-7.100002 9.200012,-13c0.5,-3 -0.100021,-5.5 -0.5,-8.5c-3.5,9.700001 -11.400009,16.5 -21.600014,17c-4.700005,-0.299999 -8,-1.299999 -8,-1.299999l0.000008,0z" id="svg_9"/>
     </g>
     <g id="svg_10">
      <path fill="#EB589F" d="m136.399994,49.599998c7.699997,-1.899998 15.599991,-9 15.599991,-16.899998c0,-5.300001 -5.5,-14.800001 -15.899994,-16.800001c7.100006,7.1 11.5,18.6 5.399994,27.500002c-2.699982,3.899998 -5.099991,6.199997 -5.099991,6.199997z" id="svg_11"/>
     </g>
     <g id="svg_12">
      <path fill="#EA545F" d="m153.5,30.5c1.100006,-7.6 -0.699997,-17.3 -7.699997,-20.9c-4.400009,-2.7 -17.300003,-0.1 -21.200005,7.1c8.900002,-3.500001 20.299995,-2.700001 25.700005,6.799999c2.300003,3.9 3.199997,7 3.199997,7z" id="svg_13"/>
     </g>
     <g id="svg_14">
      <path fill="#EF7542" d="m144.300003,7.1c-5.600006,-4.5 -14.400009,-7.1 -20.600014,-2.7c-7.099998,4.4 -8.800003,14.1 -4.399986,22.1c0.899986,-9.700001 8,-17.7 17.399994,-19.4c4.400009,-0.5 7.600006,0 7.600006,0z" id="svg_15"/>
     </g>
    </g>
    <g id="svg_16">
     <path fill="#607F91" d="m24.4,37.099998c0,-1.799999 -0.699999,-3.299999 -2,-4.599998c-1.299999,-1.200001 -3.6,-2.299999 -6.9,-3.1c-4.1,-1 -7.3,-2.5 -9.6,-4.5c-2.3,-2 -3.4,-4.4 -3.4,-7.4c0,-3.1 1.2,-5.8 3.7,-7.9c2.5,-2.1 5.7,-3.1 9.6,-3.1c4.2,0 7.599999,1.2 10.099999,3.6c2.5,2.4 3.700001,5.2 3.700001,8.4l-0.1,0.200001l-5.200001,0c0,-2.300001 -0.799999,-4.200001 -2.4,-5.700001c-1.6,-1.5 -3.6,-2.2 -6.099999,-2.2c-2.5,0 -4.5,0.599999 -5.8,1.8c-1.4,1.2 -2,2.799999 -2,4.799999c0,1.700001 0.7,3.200001 2.2,4.4c1.5,1.200001 3.900001,2.200001 7.2,3.1c4,1 7.1,2.6 9.200001,4.6c2.1,2 3.199999,4.599998 3.199999,7.599998c0,3.200001 -1.299999,5.800003 -3.799999,7.800003c-2.5,2 -5.9,2.899998 -10,2.899998c-3.9,0 -7.3,-1.099998 -10.3,-3.299999c-3,-2.200001 -4.4,-5.099998 -4.3,-8.700001l0.1,-0.200001l5.2,0c0,2.5 1,4.5 2.900001,5.800003c1.9,1.399998 4.099999,2.099998 6.5,2.099998c2.6,0 4.6,-0.599998 6.1,-1.700001c1.4,-1.200001 2.199999,-2.700001 2.199999,-4.700001z" id="svg_17"/>
     <path fill="#607F91" d="m68.099998,30.700001c0,4.899998 -1.5,9 -4.599998,12.200001c-3,3.199997 -7,4.899998 -11.799999,4.899998c-4.700001,0 -8.5,-1.599998 -11.400002,-4.899998c-2.899998,-3.200001 -4.399998,-7.300003 -4.399998,-12.200001l0,-7.1c0,-4.9 1.5,-9 4.399998,-12.200001c2.900002,-3.299999 6.700001,-4.9 11.400002,-4.9c4.899998,0 8.799999,1.6 11.799999,4.9c3,3.200001 4.599998,7.300001 4.599998,12.200001l0,7.1zm-5.399998,-7.200001c0,-3.700001 -1,-6.700001 -3,-9c-2,-2.4 -4.600002,-3.5 -8,-3.5c-3.200001,0 -5.700001,1.2 -7.600002,3.5c-1.899998,2.4 -2.799999,5.4 -2.799999,9l0,7.200001c0,3.700001 0.900002,6.700001 2.799999,9.099998c1.900002,2.400002 4.400002,3.5 7.600002,3.5c3.399998,0 6,-1.200001 8,-3.5c2,-2.299999 3,-5.399998 3,-9.099998l0,-7.200001z" id="svg_18"/>
     <path fill="#607F91" d="m81.400002,43l19.599998,0l0,4.200001l-25,0l0,-40.100001l5.400002,0l0,35.9z" id="svg_19"/>
     <path fill="#909090" d="m168.600006,43l19.600021,0l0,4.200001l-25,0l0,-40.100001l5.399979,0l0,35.9z" id="svg_20"/>
     <path fill="#909090" d="m216.100006,28.6l-16.5,0l0,14.4l19.300003,0l0,4.200001l-24.700012,0l0,-40.100001l24.400009,0l0,4.3l-19,0l0,13l16.5,0l0,4.200001z" id="svg_21"/>
     <path fill="#909090" d="m246,36.900002l-15.100006,0l-3.599991,10.299999l-5.5,0l14.5,-40.100001l4.699997,0l14.199997,40.100001l-5.5,0l-3.699997,-10.299999zm-13.5,-4.600002l12,0l-5.800003,-17.199999l-0.199997,0l-6,17.199999z" id="svg_22"/>
     <path fill="#909090" d="m266.399994,29.799999l0,17.400002l-5.399994,0l0,-40.100001l13.700012,0c4.399994,0 7.699982,1 10.099976,2.9c2.300018,1.9 3.5,4.8 3.5,8.5c0,2.1 -0.5,3.9 -1.599976,5.4c-1.100006,1.5 -2.600006,2.700001 -4.700012,3.6c2.200012,0.700001 3.799988,1.9 4.799988,3.5c1,1.599998 1.400024,3.599998 1.400024,6l0,3.799999c0,1.200001 0.099976,2.400002 0.399994,3.400002c0.299988,1 0.799988,1.799999 1.399994,2.399998l0,0.700001l-5.600006,0c-0.699982,-0.599998 -1.199982,-1.5 -1.399994,-2.799999c-0.200012,-1.200001 -0.299988,-2.5 -0.299988,-3.700001l0,-3.799999c0,-2.200001 -0.600067,-3.900002 -1.900024,-5.200001c-1.299988,-1.299999 -3,-2 -5.099976,-2l-9.300018,0zm0,-4.299999l7.699982,0c3.100006,0 5.300018,-0.6 6.600006,-1.799999c1.300018,-1.200001 2,-2.900002 2,-5.300001c0,-2.299999 -0.699982,-4 -2,-5.299999c-1.299988,-1.200001 -3.399994,-1.900001 -6.100006,-1.900001l-8.299988,0l0,14.3l0.100006,0z" id="svg_23"/>
     <path fill="#909090" d="m327.299988,47.200001l-5.399994,0l-19.300018,-30.700001l-0.199982,0.1l0,30.6l-5.399994,0l0,-40.100001l5.399994,0l19.299988,30.600001l0.200012,-0.100002l0,-30.499999l5.399994,0l0,40.100001z" id="svg_24"/>
    </g>
   </g>
  </g>
 </g>
</svg>