<svg xmlns:osb="http://www.openswatchbook.org/uri/2009/osb" xmlns="http://www.w3.org/2000/svg" xmlns:xlink="http://www.w3.org/1999/xlink" width="615.71" height="615.71" viewBox="0 0 162.91 162.91" id="svg8">
  <defs id="defs2">
    <linearGradient id="linearGradient4588">
      <stop id="stop4578" offset="0" stop-color="#f5eefa"/>
      <stop offset=".14" id="stop4596" stop-color="#d973ac"/>
      <stop offset=".27" id="stop4592" stop-color="#86438b"/>
      <stop id="stop4582" offset=".49" stop-color="#9b308a"/>
      <stop offset=".72" id="stop4590" stop-color="#763484"/>
      <stop id="stop4594" offset=".84" stop-color="#d965a5"/>
      <stop id="stop4586" offset="1" stop-color="#fbeff6"/>
    </linearGradient>
    <linearGradient id="linearGradient4546">
      <stop id="stop4532" offset="0" stop-color="#00001f"/>
      <stop offset=".18" id="stop4534" stop-color="#2a2568"/>
      <stop id="stop4536" offset=".34" stop-color="#402e91"/>
      <stop id="stop4538" offset=".51" stop-color="#693693"/>
      <stop id="stop4542" offset=".76" stop-color="#d2549e"/>
      <stop id="stop4544" offset="1" stop-color="#faf9f9"/>
    </linearGradient>
    <linearGradient id="linearGradient6290">
      <stop offset="0" id="stop6282" stop-color="#00001f"/>
      <stop id="stop4598" offset=".3" stop-color="#332a79"/>
      <stop id="stop6284" offset=".46" stop-color="#503091"/>
      <stop offset=".76" id="stop6286" stop-color="#d65aa2"/>
      <stop offset="1" id="stop6288" stop-color="#faf9f9"/>
    </linearGradient>
    <linearGradient id="linearGradient6207">
      <stop id="stop6199" offset="0" stop-color="#010001"/>
      <stop offset=".1" id="stop4533" stop-color="#010028"/>
      <stop id="stop4537" offset=".3" stop-color="#00043d"/>
      <stop id="stop6203" offset=".51" stop-color="#010e43"/>
      <stop offset=".77" id="stop4535" stop-color="#1d336c"/>
      <stop id="stop6205" offset="1" stop-color="#3e5ca4"/>
    </linearGradient>
    <linearGradient id="linearGradient6184">
      <stop offset="0" id="stop6180" stop-color="#000018"/>
      <stop id="stop4539" offset=".14" stop-color="#00002e"/>
      <stop id="stop6186" offset=".31" stop-color="#00023b"/>
      <stop offset=".63" id="stop6188" stop-color="#13285f"/>
      <stop offset="1" id="stop6182" stop-color="#3b59a1"/>
    </linearGradient>
    <linearGradient id="linearGradient6130" osb:paint="solid">
      <stop offset="0" id="stop6128"/>
    </linearGradient>
    <linearGradient id="linearGradient6124" osb:paint="solid">
      <stop offset="0" id="stop6122"/>
    </linearGradient>
    <linearGradient id="linearGradient6118">
      <stop offset="0" id="stop6116" stop-color="#fbf2f6"/>
    </linearGradient>
    <linearGradient id="linearGradient6020">
      <stop offset="0" id="stop6018"/>
    </linearGradient>
    <linearGradient id="linearGradient6014" osb:paint="solid">
      <stop offset="0" id="stop6012" stop-color="#000057"/>
    </linearGradient>
    <linearGradient xlink:href="#linearGradient6184" id="linearGradient6156" x1="-118.68" y1="-40.15" x2="-118.68" y2="383.18" gradientUnits="userSpaceOnUse" gradientTransform="translate(-35.65 -65.87) scale(.38482)"/>
    <linearGradient xlink:href="#linearGradient6207" id="linearGradient6211" x1="21.59" y1="298.38" x2="-22.32" y2="83.27" gradientUnits="userSpaceOnUse" gradientTransform="translate(-35.65 -65.87) scale(.38482)"/>
    <linearGradient xlink:href="#linearGradient4546" id="linearGradient6280" x1="16.14" y1="187.54" x2="189.76" y2="13.92" gradientUnits="userSpaceOnUse" gradientTransform="translate(-35.65 -65.87) scale(.38482)"/>
    <linearGradient xlink:href="#linearGradient6290" id="linearGradient6304" x1="124.62" y1="94.29" x2="42.59" y2="177.16" gradientUnits="userSpaceOnUse" gradientTransform="translate(-35.65 -65.87) scale(.38482)"/>
    <linearGradient xlink:href="#linearGradient4588" id="linearGradient4576" gradientUnits="userSpaceOnUse" x1="-118.68" y1="201.65" x2="304.65" y2="115.44" gradientTransform="translate(57.2 105.51) scale(.38482)"/>
    <linearGradient xlink:href="#linearGradient4588" id="linearGradient4549" gradientUnits="userSpaceOnUse" gradientTransform="translate(57.2 105.51) scale(.38482)" x1="-118.68" y1="201.65" x2="304.65" y2="115.44"/>
    <linearGradient xlink:href="#linearGradient4588" id="linearGradient4551" gradientUnits="userSpaceOnUse" gradientTransform="translate(57.2 105.51) scale(.38482)" x1="-118.68" y1="201.65" x2="304.65" y2="115.44"/>
    <linearGradient xlink:href="#linearGradient4588" id="linearGradient4553" gradientUnits="userSpaceOnUse" gradientTransform="translate(57.2 105.51) scale(.38482)" x1="-118.68" y1="201.65" x2="304.65" y2="115.44"/>
  </defs>
  <g id="g4564" transform="translate(52.39 24.75)">
    <g id="g4560">
      <path id="path4548" d="M-24.77 6.7c.04-.02 1.55.02 2.61.03 1.07.01 3.54.03 5.42.1 3.91.07 4.96.1 5.07-.04.09-.17-.13-.23-.82-.24-.5 0-2.9-.1-5.44-.21-2.54-.11-4.93-.16-5.41-.16-.5 0-.83-.03-.76-.1.07-.06 1.38-.53 2.87-1.11 4.02-1.57 4.64-1.71 4.64-2.6 0-.55-.69-.77-2-.64-.57.05-1.51.18-2.11.23-.6.06-1.04-.14-1.41.34-.23.12-1.1.32-1.84.52-2.15.57-3.63 1.14-3.59 1.86.06.34.87.22.87.01-.07-.37.74-.78 2.02-1.19a7.8 7.8 0 0 1 1.83-.46c.07.06-.3.56-.75 1.13-1.9 2.38-3 3.83-2.95 4.08.1.4.57.04.96-.55.48-.54.71-.97.79-1zm1.08-1.47c.44-.47 1.46-1.78 1.79-2.18.61-.63 1.07-.51 3.1-.87.64-.04 1.04-.05 1.34.1.15.12.22.27.16.36-.16.27-1.49.86-3.78 1.72l-2.43.93c-.2.07-.26.09-.18-.06zM-12.6 3.4c.1-.17.45-.14 2.37-1.24A256.06 256.06 0 0 0-7.94.97l-1.42 1.28C-10.83 3.6-10.88 4-10.68 4.33c.05.08.3.2.43.2.95-.08 4.01-2 5.93-3.17.28-.17.22-.08-.15.35-.8.88-.94 1.22-.73 1.56.61.28 1.02-.15 3.66-1.49C-.07 1.04 1.09.43 1.09.45c0 .03-.4.51-.73.94-.34.43-.48.6-.5.8.24.46.53.04 1.2-.5A16.9 16.9 0 0 1 3.73-.13c.03.02-.62.83-.88 1.26-.3.9.08.9 1.84-.49 1.87-1.34 2.24-1.72 1.7-.89-.2.28-.47.71-.53.78-.22.45.1.66.35.57.57-.2.97-.48 1.97-1.02 1.79-.94 1.75-.98 1.54-.57-.42.54-.22.77.05.87.2.08.98-.3 1.79-.9l.49-.36-.1.46c-.11.56.62.44 2.33-.65 1.29-.7 1.96-1.14 2-1.14.04 0-.22.26-.34.45-.5.94.23 1.04 1.28.56.3-.14 1.06-.6 1.76-1.03.7-.42 1.4-.9 1.43-.87l-1.37 1.76C17.64.5 17.2 1.14 17.17 1.44c.35.44.42.15.97-.67a45.05 45.05 0 0 1 3.04-4c.98-.96 1.26-1.37.53-1.2-.2.11-1.3.81-2.2 1.35-1.7 1.04-2.84 1.63-3.07 1.6-.02-.25.62-.97 1.11-1.32 1.2-.7 1.14-1.32-.01-.6-.55.35-4.86 2.67-4.86 2.67-.19.02.09-.36.67-1 .19-.2.96-.85.78-.97-.37-.24-.62.2-.62.2-.13-.36-1.39-.21-2.99.93C9.8-1.22 6.94.17 6.64.41c.09-.22.26-.45.51-.85.26-.4.52-.63.5-.92.01-.44-.99-.23-2.8 1.23l-1.2.96.6-.86c.41-.5.29-.73-.05-.9C4-1 2.16.1 2.04.3c-.1.1-.46.39-.42.33.16-.25.2-.3.37-.53.16-.22.37-.43.2-.58C1.85-.64.57.14-1.17 1.05c-1.6.83-2.24 1.13-3.31 1.73-.42.18.92-1.52 2.36-2.82A17.72 17.72 0 0 0-.86-1.12c1.19-.26 2.31-.6 3.41-.85 2.83-.63 3.7-.97 3.78-1.05.25-.16-.08-.2-.27-.15-.75.22-5.9 1.34-6.5 1.6-.04-.02.13-.13.26-.31.3-.37-.13-.57-.78.14-.3.28-.8.46-2.32.82-1.07.26-1.77.4-2.22.55-.25.09-.5.12.09-.26.21-.2.28-.35.12-.44-.15-.24-.7.2-1.24.7-.29.27-.98.45-3.15.98-2.81.68-3.48.84-3.56 1.07-.07.17.05.4.54.22.72-.33 4.62-1.28 4.62-1.28s-1.25.6-2.37 1.16c-1.5.75-1.93.92-2.19 1.07-.07-.3-.52-.2-.75-.13-.3.16-.62.77-.02.82-.12.2-.83.87-1.51 1.31-.4.26-.79.4-1.12.4-.46 0-.49-.07-.46-.35.07-.66.85-1.17 1.63-1.58.79-.26 1.37-.42.92-.56-.78-.09-2.13.57-2.63 1.13-.35.33-.6.75-.6 1.16.02.4.16.58.4.68.67.26 1.53-.08 1.9-.3.65-.34 2-1.49 2.27-2.04zm2.59.43c0-.17 2.07-2.18 3.07-3.08.84-.7.44-.5 2.57-.98l2.4-.63C-2.06-.63-3.98.64-7.4 2.57c-2.13 1.12-2.63 1.48-2.63 1.25zM10.4-.41c0-.25.27-.63.8-1 .6-.4 1.69-.87 1.8-.76.05.05-1.86 1.43-2.38 1.7-.16.08-.22.1-.22.06zm-47.87 3.46c.75-.33 8.33-2.38 8.79-2.18.19.08.5-.31.92-.66.86-.73 2.43-1.81 2.5-1.74.03.03-.3.43-.5.81-.2.38-.32.7-.3.73.16.46.55 0 2-.94 2.13-1.4 2-1.37 1.86-1.15l-.5.72c-.48.68-.48 1.02 0 1.02.24 0 1.05-.48 2.26-1.27 1.02-.66 1.93-1.28 1.93-1.24 0 .04-.21.29-.37.5-.23.24-.31.58-.29.75.04.26.08.44.72.36.49 0 1.01-.23 2.26-.86.88-.44 1.73-.87 1.8-1-.02.44.05.57.24.76.26.21 1.1.18 1.51.07 2.2-.59 5.79-2.17 6.57-2.85.43-.38.57-.64-1.54.5-3.08 1.37-5.59 2.22-6.03 1.85-.33-.39-.16-.74.56-1.2 1.59-.9 4.68-3.45 4.53-4.3-.07-.39-1.16.06-1.82.5a14.12 14.12 0 0 0-3.41 3.3c-.46.65-.83.97-1.71 1.5-1.67.99-3.04 1.5-3.05 1.2 0-.23.68-1.1 1.1-1.49.4-.37.43-.65.12-.65s-1.15.51-3.15 1.78c-1 .63-1.85 1.19-1.9 1.15-.07-.08.72-1.1.91-1.36.15-.2.24-.22.23-.45-.05-.47-.41-.25-2.18.9-1.82 1.16-1.9 1.31-1.7.94.14-.25.34-.46.54-.76.72-.77.58-1.08-.77-.3-.51.27-1.11.64-1.31.78-.51.36-.57.41-.25-.05.62-.84.1-.89-.42-.26a9 9 0 0 0-.93 1.25c-.3.43-.67.8-.84.85-.16.04-1.4.26-2.74.61-1.35.3-3.02.67-3.7.85-.69.19-1.3.37-1.39.37-.17 0 .16-.28 1.2-1.5.56-.67.53-.77 2.49-1.16 4.08-.8 4.7-1.45.9-.56-1.24.25-2.32.42-2.29.39.2-.17 1.53-1.85 1.75-1.94.12-.04 1.3-.23 2.58-.48 1.3-.21 2.42-.4 2.63-.64.23-.17.2-.27-.07-.28-.19-.08-1.37.24-2.67.5-1.3.26-2.5.5-2.69.48-.46-.08-2.9.8-2.62.86.1.18.72 0 1.04-.08.33-.07.62-.1.66-.07.03.03-.3.45-.8 1.02-.64.7-1.01 1.02-1.23 1.02-.43 0-.77.35-.47.54.63.04.3-.02-.9 1.39-.41.5-1.19 1.05-1.2 1.35 0 .18.1.21.76-.08zm24.62-7.97c.77-.89 3.44-3.12 3.63-2.94.2.25-3.28 3.14-4 3.48l.37-.54zm36.5 2.46c1.38-.4 3.47-1.5 4.04-2.08.86-.71.76-.76 1.1-.59.14.12-.13.32-.58.76-.47.47-.52.74-.51.8.07.52.54.3 1.93-.08a68.1 68.1 0 0 1 6.45-1.37c2.23-.3 3.72-.5 1.25-.47-1.46.13-4.65.62-6.87 1.2-2.22.54-2.5.78-1.54-.17.32-.33.78-.65.65-.98-.5-.17-.44-.37-.8-.46-.44.05-.73.41-1.05.7-.78.68-2.22 1.44-3.47 2.03-2.05.86-2.5.45-.67-.15 1.35-.66 2.47-1.4 2.06-1.82-.26-.26-1.54.21-2.35.82-.63.45-.9.86-1.46 1.21-.41.3.09 1.07.55.9.4.01.73-.1 1.27-.25zm-.5-1.15c.02-.26 1.4-1 1.47-.93.16.15-.16.28-.4.42-.5.3-1.09.64-1.08.51zm-38.9-1.81c-.36 0-.7.26-.56.47.11.19.47.22.68.09.35-.2.24-.56-.12-.56z" fill="#fbfbf9" stroke-width=".14"/>
    </g>
  </g>
</svg>
