<svg width="6550.9858" height="736.90143" xmlns="http://www.w3.org/2000/svg">
 <metadata id="metadata27">image/svg+xml</metadata>

 <g>
  <title>background</title>
  <rect x="-1" y="-1" width="6552.9858" height="738.90143" id="canvas_background" fill="none"/>
 </g>
 <g>
  <title>Layer 1</title>
  <path d="m0,324.50743c54.31101,-20.9517 112.86397,-45.27779 162.25352,-63.23486c504.29188,-182.88895 1000.88478,-268.37867 1510.98588,-260.12004c159.2424,2.57816 252.1741,8.43821 415.7746,26.21775c303.1666,32.94709 657.9081,108.33138 1003.9437,213.34289c240.5465,74.11581 491.9811,159.39689 694.6479,234.18444c179.7055,66.92897 318.8001,102.66244 512.1126,131.56196c166.534,24.89625 323.5139,34.00898 540.8451,31.39616c263.8496,-3.17206 485.0123,-24.1005 776.3395,-73.46438c266.2921,-45.12186 602.0846,-127.30073 800.5619,-195.92262c109.2405,-37.76895 130.5732,-43.9613 133.5353,-43.9613l0.2,412.594l-6551.2,-0.2l0,-412.394z" id="path58" stroke-width="3.38028" fill="#ffffff"/>
 </g>
</svg>