<?xml version="1.0" encoding="UTF-8" standalone="no"?>
<svg
   xmlns:dc="http://purl.org/dc/elements/1.1/"
   xmlns:cc="http://creativecommons.org/ns#"
   xmlns:rdf="http://www.w3.org/1999/02/22-rdf-syntax-ns#"
   xmlns:svg="http://www.w3.org/2000/svg"
   xmlns="http://www.w3.org/2000/svg"
   xmlns:sodipodi="http://sodipodi.sourceforge.net/DTD/sodipodi-0.dtd"
   xmlns:inkscape="http://www.inkscape.org/namespaces/inkscape"
   width="578"
   height="65"
   version="1.1"
   id="svg13"
   sodipodi:docname="wave-top.svg"
   inkscape:version="0.92.1 r15371">
  <defs
     id="defs17" />
  <sodipodi:namedview
     pagecolor="#ffffff"
     bordercolor="#666666"
     borderopacity="1"
     objecttolerance="10"
     gridtolerance="10"
     guidetolerance="10"
     inkscape:pageopacity="0"
     inkscape:pageshadow="2"
     inkscape:window-width="1024"
     inkscape:window-height="719"
     id="namedview15"
     showgrid="false"
     fit-margin-top="0"
     fit-margin-left="0"
     fit-margin-right="0"
     fit-margin-bottom="0"
     inkscape:zoom="1"
     inkscape:cx="291.62353"
     inkscape:cy="-10.52117"
     inkscape:window-x="-4"
     inkscape:window-y="-4"
     inkscape:window-maximized="1"
     inkscape:current-layer="svg13" />
  <metadata
     id="metadata27">image/svg+xml<rdf:RDF>
  <cc:Work
     rdf:about="">
    <dc:format>image/svg+xml</dc:format>
    <dc:type
       rdf:resource="http://purl.org/dc/dcmitype/StillImage" />
    <dc:title></dc:title>
  </cc:Work>
</rdf:RDF>
</metadata>
  <g
     id="g6"
     transform="translate(0,-672.10143)">
    <title
       id="title3">background</title>
    <rect
       x="-1"
       y="-1"
       width="6552.9858"
       height="738.90143"
       id="canvas_background"
       style="fill:none" />
  </g>
  <g
     id="g11"
     transform="matrix(0.08822811,0,0,0.08825595,0,-0.05358833)">
    <title
       id="title8">Layer 1</title>
    <path
       d="M 0,324.50743 C 54.31101,303.55573 112.86397,279.22964 162.25352,261.27257 666.5454,78.38362 1163.1383,-7.1061 1673.2394,1.15253 c 159.2424,2.57816 252.1741,8.43821 415.7746,26.21775 303.1666,32.94709 657.9081,108.33138 1003.9437,213.34289 240.5465,74.11581 491.9811,159.39689 694.6479,234.18444 179.7055,66.92897 318.8001,102.66244 512.1126,131.56196 166.534,24.89625 323.5139,34.00898 540.8451,31.39616 263.8496,-3.17206 485.0123,-24.1005 776.3395,-73.46438 266.2921,-45.12186 602.0846,-127.30073 800.5619,-195.92262 109.2405,-37.76895 130.5732,-43.9613 133.5353,-43.9613 l 0.2,412.594 -6551.2,-0.2 z"
       id="path58"
       inkscape:connector-curvature="0"
       style="fill:#ffffff;stroke-width:3.38028002" />
  </g>
</svg>
